#!OML:ASF E:\emotionWalksFemale\Project 1\Capture day 1\Session 1\Female1.ASF
:FULLY-SPECIFIED
:DEGREES
638
root 9.5848 15.263 -26.8242 -177.669 -1.39447 -172.657
lowerback 2.86721 2.49907 5.34037
upperback -4.76935 3.52054 0.515513
thorax -6.29307 1.41465 -2.72056
lowerneck -6.46027 -4.76921 -9.45951
upperneck 1.82204 -6.10136 10.1573
head 2.20147 -2.91618 4.34535
rclavicle -2.17669e-014 -3.02153e-014
rhumerus -32.6869 10.7391 -95.5862
rradius 37.7407
rwrist 15.2253
rhand 1.54982 -51.5727
rfingers 7.12502
rthumb 27.074 -79.6517
lclavicle -2.17669e-014 -3.02153e-014
lhumerus -46.4771 4.66384 82.4067
lradius 33.2005
lwrist -16.8456
lhand -2.11361 -33.9092
lfingers 7.12502
lthumb 23.5644 -5.33283
rfemur 19.7338 8.49077 38.3579
rtibia 6.04305e-014
rfoot -7.22113 -21.8431
rtoes 9.07309
lfemur -30.9852 -23.6178 -9.97037
ltibia 26.7554
lfoot -40.6151 32.5148
ltoes 37.913
639
root 9.55149 15.2725 -26.9547 -177.582 -1.26913 -172.806
lowerback 2.56676 2.50767 5.31895
upperback -4.79444 3.50422 0.513723
thorax -6.14857 1.40888 -2.69448
lowerneck -5.67802 -4.44708 -8.87858
upperneck 0.862957 -5.6837 9.45113
head 1.70967 -2.74232 4.08216
rclavicle -2.66868e-014 -1.11319e-014
rhumerus -33.061 10.5236 -95.5194
rradius 37.5243
rwrist 15.3964
rhand 2.29529 -51.7796
rfingers 7.12502
rthumb 27.787 -79.7456
lclavicle -2.66868e-014 -1.11319e-014
lhumerus -46.5859 4.62406 82.4472
lradius 33.176
lwrist -16.8918
lhand -2.10134 -34.1682
lfingers 7.12502
lthumb 23.5762 -5.5934
rfemur 20.1196 8.25802 37.931
rtibia 3.18055e-014
rfoot -6.82192 -21.2825
rtoes 10.0988
lfemur -30.8487 -24.7318 -9.94035
ltibia 26.8791
lfoot -43.2047 31.964
ltoes 42.8035
640
root 9.51911 15.2895 -27.0821 -177.44 -1.08138 -173.162
lowerback 2.41394 2.50653 5.05895
upperback -4.92983 3.46937 0.435368
thorax -6.21547 1.39396 -2.62483
lowerneck -5.37008 -4.03309 -8.98125
upperneck 0.399091 -5.13235 9.65168
head 1.48061 -2.47712 4.1955
rclavicle -2.22639e-014 2.78299e-015
rhumerus -33.5615 10.512 -95.5594
rradius 37.2118
rwrist 15.4232
rhand 3.02603 -51.917
rfingers 7.12502
rthumb 28.4854 -79.7681
lclavicle -2.22639e-014 2.78299e-015
lhumerus -46.8774 4.49947 82.4362
lradius 33.3513
lwrist -16.7055
lhand -1.94317 -34.1402
lfingers 7.12502
lthumb 23.7279 -5.585
rfemur 20.4724 8.09373 37.2826
rtibia 3.18055e-014
rfoot -6.32431 -20.8114
rtoes 11.4539
lfemur -30.6059 -25.4863 -10.2649
ltibia 26.862
lfoot -43.5038 33.1681
ltoes 42.3383
641
root 9.49263 15.3057 -27.2118 -177.243 -0.77318 -173.617
lowerback 2.19269 2.48509 4.47362
upperback -5.14405 3.38143 0.358128
thorax -6.34699 1.36347 -2.36811
lowerneck -5.3212 -3.65391 -8.31547
upperneck 0.415763 -4.63682 8.60212
head 1.53872 -2.24946 4.20013
rclavicle 2.54444e-014 -1.94809e-014
rhumerus -34.1704 10.7165 -95.8044
rradius 36.5937
rwrist 15.4391
rhand 2.92873 -51.6608
rfingers 7.12502
rthumb 28.3925 -79.5274
lclavicle 2.54444e-014 -1.94809e-014
lhumerus -47.3329 4.6642 82.158
lradius 33.5666
lwrist -16.6601
lhand -1.67376 -33.9905
lfingers 7.12502
lthumb 23.9863 -5.46904
rfemur 20.7835 8.05321 36.5377
rtibia 1.90833e-014
rfoot -5.73401 -20.3133
rtoes 11.5881
lfemur -30.1921 -25.6522 -10.8708
ltibia 26.737
lfoot -43.6224 33.305
ltoes 43.229
642
root 9.46479 15.3137 -27.3433 -177.267 -0.702585 -174.07
lowerback 2.0292 2.37216 3.89792
upperback -5.25432 3.18219 0.323039
thorax -6.40935 1.28632 -2.06579
lowerneck -5.35852 -3.42339 -7.46878
upperneck 0.532726 -4.34474 7.67013
head 1.49775 -2.10724 3.71215
rclavicle 2.44505e-014 2.0276e-014
rhumerus -34.6877 10.7604 -95.9105
rradius 35.9525
rwrist 15.6695
rhand 3.13015 -51.7501
rfingers 7.12502
rthumb 28.5849 -79.5844
lclavicle 2.44505e-014 2.0276e-014
lhumerus -47.6857 5.11561 81.8042
lradius 33.666
lwrist -16.908
lhand -1.57891 -34.1184
lfingers 7.12502
lthumb 24.0772 -5.60891
rfemur 21.303 7.72383 35.8272
rtibia 4.13472e-014
rfoot -4.94421 -19.8244
rtoes 11.4453
lfemur -29.4384 -25.3134 -11.8342
ltibia 26.5857
lfoot -42.8851 32.6595
ltoes 45.4813
643
root 9.43177 15.3246 -27.4734 -177.418 -0.739848 -174.495
lowerback 2.20815 2.3504 3.73019
upperback -5.29189 3.14795 0.134818
thorax -6.55247 1.27089 -2.17553
lowerneck -5.90048 -3.35811 -6.82083
upperneck 0.877708 -4.24862 6.87068
head 1.65409 -2.05554 3.3052
rclavicle 1.68967e-015 -1.94809e-014
rhumerus -34.9361 10.1082 -95.712
rradius 35.2652
rwrist 16.2346
rhand 3.63295 -51.9447
rfingers 7.12502
rthumb 29.0652 -79.6973
lclavicle 1.68967e-015 -1.94809e-014
lhumerus -47.6697 5.10907 81.6343
lradius 33.6451
lwrist -17.0675
lhand -1.58923 -34.0738
lfingers 7.12502
lthumb 24.0673 -5.56299
rfemur 19.4191 7.22896 35.1719
rtibia 4.97105
rfoot -6.72207 -19.5954
rtoes 10.2739
lfemur -28.574 -24.4409 -13.0504
ltibia 26.4725
lfoot -39.9357 32.889
ltoes 46.0608
